<svg xmlns="http://www.w3.org/2000/svg" viewBox="0 0 425 178" class="svg-logo">
    <g fill="#222426">
        <path d="M39.66 138H.9V98.04h7.5v33.72h31.26V138zm66.08 0H97.7l-5.28-9.9H68.96l-5.1 9.9h-7.92l21.6-39.96h6.24L105.74 138zm-16.26-15.36l-9-16.8-8.7 16.8h17.7zM166.77 138h-6.78c-2.04 0-2.94-2.82-3.18-6.42l-.24-4.08c-.24-3.96-1.86-5.64-9.36-5.64h-14.16V138h-7.5V98.04h21.78c12 0 17.4 4.8 17.4 10.98 0 4.38-2.22 8.52-10.02 9.96 7.8.6 9.48 4.14 9.54 8.82l.06 3.3c.06 2.76.54 4.74 2.46 6.72v.18zm-9.6-27.54v-.48c0-2.88-2.34-5.7-8.76-5.7h-15.36v12h16.02c5.52 0 8.1-2.64 8.1-5.82zm76.4 27.54h-8.05l-5.28-9.9h-23.46l-5.1 9.9h-7.92l21.6-39.96h6.24L233.56 138zm-16.27-15.36l-9-16.8-8.7 16.8h17.7zm76.52-18.06l-4.68 4.74c-3.6-3.3-8.88-6.42-16.02-6.42-10.68 0-16.68 7.32-16.68 14.94v.78c0 7.56 6.06 14.64 17.22 14.64 6.66 0 12.18-3.18 15.66-6.42l4.5 4.74c-4.38 4.32-11.82 7.98-20.64 7.98-15.12 0-24.3-9.84-24.3-20.64v-1.32c0-10.8 10.02-21 24.66-21 8.46 0 16.14 3.54 20.28 7.98zm66.13 14.16c0 10.62-9.18 20.82-23.4 20.82-14.16 0-23.34-10.2-23.34-20.82v-1.32c0-10.8 9.18-20.82 23.34-20.82 14.22 0 23.4 10.02 23.4 20.82v1.32zm-7.56-.24v-.96c0-7.74-5.64-14.64-15.84-14.64s-15.78 6.9-15.78 14.64v.96c0 7.74 5.58 14.76 15.78 14.76s15.84-7.02 15.84-14.76zm72.37 19.5h-6.48l-25.98-26.76-2.52-2.82V138h-7.5V98.04h7.2l25.2 26.7 2.58 2.88V98.04h7.5V138z" />
        <path d="M99.14 169.2c0 3.07-2.4 5.42-6.46 5.42-2.88 0-5.11-.88-6.96-2.4l1.49-2.06a8.68 8.68 0 0 0 5.25 1.92c2.55 0 3.68-1.15 3.68-3.1v-10.96h3v11.18zm19.23 4.8h-2.62v-3.53c-1.37 2.52-3.19 3.84-5.83 3.84-3.02 0-4.66-1.73-4.66-4.37v-7.17h2.88v6.67c0 1.87 1.01 2.86 2.98 2.86 2.2 0 4.4-2.12 4.4-4.83v-4.7h2.85V174zm8.7 0h-2.74v-15.98h2.73V174zm18.96-11.23l-4.8 8.9c-2.45 4.56-3.48 5.88-7.32 5.88h-1.05v-1.94H134c1.56 0 2.37-.63 2.95-1.73l.26-.5-5.66-10.61h3.05l2.8 5.69 1.42 2.85 1.44-2.85 2.69-5.7h3.07zM174.66 174h-15v-.91c0-8.95 11.95-7.15 11.95-10.56 0-1.49-1.44-2.57-4.35-2.57-2.2 0-4.2.74-6.3 1.87l-1.11-2.18c2.5-1.37 4.85-2.23 7.51-2.23 4.51 0 7.22 2.25 7.22 5.01 0 5.35-11.59 4.13-11.85 9.07h11.93v2.5zm20.21-5.04c0 2.88-2.64 5.64-7.6 5.64-2.7 0-5.74-.86-7.66-1.68l1.05-2.26c2.43.87 4.47 1.4 6.6 1.4 3.41 0 4.66-1.37 4.66-3.05v-.1c0-1.53-1.42-2.83-4.27-2.83-2.04 0-3.63.53-5.14 1.6l-2.13-.66.67-9h13.22c-.17 2.13-.86 2.5-2.83 2.5h-7.94l-.36 4.72a8.95 8.95 0 0 1 5.1-1.56c4.38 0 6.63 2.45 6.63 5.23v.05zm23.37-.94h-8.54v-2.2h8.54v2.2zM247.9 174h-15v-.91c0-8.95 11.95-7.15 11.95-10.56 0-1.49-1.44-2.57-4.35-2.57-2.2 0-4.2.74-6.3 1.87l-1.11-2.18c2.5-1.37 4.85-2.23 7.51-2.23 4.51 0 7.22 2.25 7.22 5.01 0 5.35-11.59 4.13-11.85 9.07h11.93v2.5zm20.48-5.23c0 2.97-2.64 5.88-7.25 5.88-4.9 0-8.19-3.53-8.19-8.28v-.29c0-4.68 3.8-8.62 8.96-8.62 2.37 0 4.12.6 5.88 1.54l-1.32 2.2a9.3 9.3 0 0 0-4.66-1.24c-3.58 0-5.95 2.33-5.95 5.47v.22a9.5 9.5 0 0 1 6.02-2.16c4.06 0 6.5 2.28 6.5 5.16v.12zm-2.9.21v-.14c0-1.75-1.45-3.05-4.45-3.05-1.82 0-3.7.7-5.06 1.83l.02.1a5.07 5.07 0 0 0 5.04 4.38c2.83 0 4.44-1.3 4.44-3.12zm32.55 5.02h-15v-.91c0-8.95 11.95-7.15 11.95-10.56 0-1.49-1.44-2.57-4.34-2.57-2.2 0-4.2.74-6.31 1.87l-1.1-2.18c2.49-1.37 4.84-2.23 7.5-2.23 4.52 0 7.23 2.25 7.23 5.01 0 5.35-11.6 4.13-11.86 9.07h11.93v2.5zm22.23-7.68a8.3 8.3 0 0 1-8.64 8.33c-5.5 0-8.66-4.13-8.66-8.33v-.53c0-4.2 3.17-8.33 8.66-8.33a8.3 8.3 0 0 1 8.64 8.33v.53zm-2.88-.07v-.39c0-3.28-2.04-5.88-5.76-5.88-3.72 0-5.76 2.6-5.76 5.88v.39c0 3.29 2.04 5.88 5.76 5.88 3.72 0 5.76-2.6 5.76-5.88zm12.06 7.75h-2.95v-14.47c1.2 0 1.68-.65 1.68-1.51h1.27V174zm22.18-3.96c0 2.3-2.88 4.56-7.84 4.56-5 0-7.88-2.26-7.88-4.56v-.14c0-1.64 1.3-3.36 4.2-3.87-2.8-.62-3.84-2.25-3.84-3.84v-.12c0-2.2 2.43-4.65 7.52-4.65 5.06 0 7.48 2.44 7.48 4.65v.12c0 1.59-1.03 3.07-3.84 3.7 2.9.5 4.2 2.37 4.2 4v.15zm-3.02-7.75v-.05c0-1.15-1.42-2.42-4.82-2.42-3.44 0-4.85 1.27-4.85 2.42v.05c0 1.37 2.01 2.54 4.85 2.54 2.83 0 4.82-1.17 4.82-2.54zm.07 7.34v-.1c0-1.34-1.87-2.49-4.9-2.49-3.04 0-4.91 1.15-4.91 2.5v.1c0 1.48 1.63 2.51 4.92 2.51 3.28 0 4.9-1.03 4.9-2.52zm-226.04-105l-1.87 1.9a9.33 9.33 0 0 0-6.4-2.57c-4.28 0-6.68 2.93-6.68 5.98v.3c0 3.03 2.43 5.86 6.9 5.86a9.35 9.35 0 0 0 6.25-2.56l1.8 1.9a11.94 11.94 0 0 1-8.25 3.18c-6.05 0-9.72-3.93-9.72-8.25v-.53c0-4.32 4-8.4 9.86-8.4 3.39 0 6.46 1.42 8.11 3.2zM148.34 78h-3v-6.86h-10.99V78h-3V62.02h3v6.76h11v-6.76h3V78zm12.9 0h-3V62.02h3V78zm26.9-13.37l-1.87 1.9a9.33 9.33 0 0 0-6.4-2.57c-4.28 0-6.68 2.93-6.68 5.98v.3c0 3.03 2.43 5.86 6.9 5.86a9.35 9.35 0 0 0 6.26-2.56l1.8 1.9a11.94 11.94 0 0 1-8.26 3.18c-6.05 0-9.72-3.93-9.72-8.25v-.53c0-4.32 4-8.4 9.86-8.4 3.39 0 6.46 1.42 8.12 3.2zM214.85 78h-3.22l-2.1-3.96h-9.4L198.1 78h-3.17l8.64-15.98h2.5L214.84 78zm-6.5-6.14l-3.6-6.72-3.48 6.72h7.08zM239.1 78h-1.92l-.46-2.16a8.19 8.19 0 0 1-6.43 2.78c-5.66 0-9.33-3.88-9.33-8.32V70c0-4.53 4-8.56 9.86-8.56 3.6 0 6.53 1.49 8.11 3.2l-1.87 1.89a9.49 9.49 0 0 0-6.26-2.57c-4.47 0-6.82 2.86-6.82 5.98v.26c0 3.12 2.52 5.9 6.6 5.9 3.1 0 5.3-1.9 5.3-3.81v-.17h-4.92v-2.38h8.14V78zm27.05-7.7c0 4.24-3.67 8.32-9.36 8.32-5.66 0-9.33-4.08-9.33-8.32v-.53c0-4.32 3.67-8.33 9.33-8.33 5.7 0 9.36 4 9.36 8.33v.53zm-3.02-.1v-.38c0-3.1-2.26-5.86-6.34-5.86s-6.3 2.76-6.3 5.86v.38c0 3.1 2.22 5.9 6.3 5.9s6.34-2.8 6.34-5.9zm14.02 7.49c0 1.56-.82 3.53-3.62 3.53v-.77c1.24 0 2.08-.89 2.08-2.45h-1.24v-2.71h2.78v2.4zm25.93.31h-3V62.02h3V78zm25.4 0h-15.5V62.02h3V75.5h12.5V78z" opacity=".5" />
        <path fill-opacity=".5" d="M238.91 10.68c.97 1.17 6.46 8.03 6.86 8.47.4.45.3.8-.43 1-.63.18-6.53 1.74-8.19 2.18 2.43 3.24 7.05 9.42 7.44 10 .53.78.04 1.01-.74 1.34-.8.32-18.3 6.61-19.5 6.97-1.54.47-2.22.7-3.22-.7-.75-1.04-4.79-8.3-6.77-11.88-3.75.98-10.61 2.77-12.6 3.24-1.92.46-2.75-.7-3.06-1.4-.32-.72-11.7-25.2-12.42-26.88-.71-1.69.07-2 .79-2.06.7-.06 10.73-.9 12.04-.95 1.31-.06 1.43.24 2 1.09l14.45 24.1 18.16-4.34-6.01-8.5c-.5-.7 0-1.02.82-1.16l8.35-1.39c.6-.08 1.06-.3 2.03.87zm3.66 8.03c.4-.09.7-.22.52-.45-.17-.22-4.77-6.03-5.1-6.49-.34-.46-.58-.38-.85-.32-.28.06-6.32 1.15-6.7 1.2-.36.05-.24.26-.1.47l5.33 7.29s6.5-1.62 6.9-1.7zm-1.14 12.55c-.16-.26-5.71-7.82-6-8.25-.22-.3-.35-.37-.87-.2l-17.7 4.6s5.43 9.39 5.85 9.99c.41.6.67.55 1 .41.32-.13 17.03-5.76 17.54-5.95.5-.18.35-.35.18-.6zm-28.68-5.37c.47-.1.36-.17.12-.57L199.31 1.95c-.12-.2-.08-.28-.42-.26-.33.02-9.78.86-9.94.86-.16 0-.17.25 0 .56.17.3 12.2 25.07 12.26 25.26.06.19.06.25.6.12.55-.12 10.72-2.55 10.94-2.6z" />
    </g>
</svg>